<svg width="282" height="282" viewBox="0 0 282 282" fill="none" xmlns="http://www.w3.org/2000/svg">
<path d="M80.0827 36.8297C92.7421 5.92292 120.776 19.7406 134.464 31.4565C135.321 32.19 135.792 33.2698 135.792 34.3978V250.904C135.792 252.083 135.253 253.224 134.336 253.966C103.335 279.044 85.2828 259.211 80.0827 245.933C44.9187 241.31 43.965 210.382 47.8837 195.496C15.173 188.351 17.5591 153.64 22.841 137.178C9.34813 109.018 33.9141 91.8201 47.8837 86.7414C40.524 52.2761 66.2831 39.1064 80.0827 36.8297Z" stroke="#C15E50" stroke-width="4"/>
<line y1="-2" x2="94.9384" y2="-2" transform="matrix(0.594988 0.803734 -0.785925 0.618321 77.3574 39.0923)" stroke="#C15E50" stroke-width="4"/>
<path d="M49.1309 86.2527L136.212 177.224" stroke="#C15E50" stroke-width="4"/>
<line y1="-2" x2="90.5781" y2="-2" transform="matrix(0.81717 0.576396 -0.552987 0.83319 32.5566 144.514)" stroke="#C15E50" stroke-width="4"/>
<line y1="-2" x2="145.522" y2="-2" transform="matrix(0.689338 -0.72444 0.703134 0.711057 35.4785 140.498)" stroke="#C15E50" stroke-width="4"/>
<line y1="-2" x2="77.0207" y2="-2" transform="matrix(0.531085 -0.847319 0.832259 0.554387 49.1133 196.723)" stroke="#C15E50" stroke-width="4"/>
<line y1="-2" x2="111.293" y2="-2" transform="matrix(-0.980107 0.198471 -0.187173 -0.982327 135.791 118.41)" stroke="#C15E50" stroke-width="4"/>
<line y1="-2" x2="58.2375" y2="-2" transform="matrix(0.535143 -0.844762 0.829524 0.558472 81.252 246.924)" stroke="#C15E50" stroke-width="4"/>
<line y1="-2" x2="64.1562" y2="-2" transform="matrix(-0.506896 -0.862007 0.848017 -0.529968 137.443 252.989)" stroke="#C15E50" stroke-width="4"/>
<line y1="-2" x2="45.3484" y2="-2" transform="matrix(-0.0859054 0.996303 -0.995828 -0.0912537 110.471 151.542)" stroke="#C15E50" stroke-width="4"/>
<line y1="-2" x2="87.7438" y2="-2" transform="matrix(0.998952 -0.04577 0.0430721 0.999072 49.1133 198.731)" stroke="#C15E50" stroke-width="4"/>
<line y1="-2" x2="64.1538" y2="-2" transform="matrix(-0.166991 0.985958 -0.984183 -0.177152 100.73 68.2088)" stroke="#C15E50" stroke-width="4"/>
<circle cx="102.68" cy="67.2048" r="9.88852" fill="#C15E50"/>
<ellipse cx="91.965" cy="129.454" rx="10.7131" ry="11.0442" fill="#C15E50"/>
<circle cx="106.574" cy="194.715" r="9.88852" fill="#C15E50"/>
<ellipse cx="49.5993" cy="86.7831" rx="7.30438" ry="7.53012" fill="#C15E50"/>
<ellipse cx="81.7387" cy="38.5903" rx="6.33046" ry="6.5261" fill="#C15E50"/>
<ellipse cx="27.2" cy="141" rx="11.2" ry="11.5462" fill="#C15E50"/>
<circle cx="81.2534" cy="243.912" r="5.93311" fill="#C15E50"/>
<circle cx="52.0352" cy="194.715" r="6.92197" fill="#C15E50"/>
<path d="M201.917 245.17C189.258 276.077 161.224 262.259 147.536 250.543C146.679 249.81 146.208 248.73 146.208 247.602V31.096C146.208 29.9172 146.747 28.7757 147.664 28.0343C178.665 2.95557 196.717 22.7885 201.917 36.0669C237.081 40.6903 238.035 71.618 234.116 86.5039C266.827 93.6492 264.441 128.36 259.159 144.822C272.652 172.982 248.086 190.18 234.116 195.259C241.476 229.724 215.717 242.894 201.917 245.17Z" stroke="#C15E50" stroke-width="4"/>
<line y1="-2" x2="94.9384" y2="-2" transform="matrix(-0.594988 -0.803734 0.785925 -0.618321 204.643 242.908)" stroke="#C15E50" stroke-width="4"/>
<path d="M232.869 195.747L145.788 104.776" stroke="#C15E50" stroke-width="4"/>
<line y1="-2" x2="90.5781" y2="-2" transform="matrix(-0.81717 -0.576396 0.552987 -0.83319 249.443 137.486)" stroke="#C15E50" stroke-width="4"/>
<line y1="-2" x2="145.522" y2="-2" transform="matrix(-0.689338 0.72444 -0.703134 -0.711057 246.521 141.502)" stroke="#C15E50" stroke-width="4"/>
<line y1="-2" x2="77.0207" y2="-2" transform="matrix(-0.531085 0.847319 -0.832259 -0.554387 232.887 85.2771)" stroke="#C15E50" stroke-width="4"/>
<line y1="-2" x2="111.293" y2="-2" transform="matrix(0.980107 -0.198471 0.187173 0.982327 146.209 163.59)" stroke="#C15E50" stroke-width="4"/>
<line y1="-2" x2="58.2375" y2="-2" transform="matrix(-0.535143 0.844762 -0.829524 -0.558472 200.748 35.0763)" stroke="#C15E50" stroke-width="4"/>
<line y1="-2" x2="64.1562" y2="-2" transform="matrix(0.506896 0.862007 -0.848017 0.529968 144.557 29.0108)" stroke="#C15E50" stroke-width="4"/>
<line y1="-2" x2="45.3484" y2="-2" transform="matrix(0.0859054 -0.996303 0.995828 0.0912537 171.529 130.458)" stroke="#C15E50" stroke-width="4"/>
<line y1="-2" x2="87.7438" y2="-2" transform="matrix(-0.998952 0.04577 -0.0430721 -0.999072 232.887 83.2691)" stroke="#C15E50" stroke-width="4"/>
<line y1="-2" x2="64.1538" y2="-2" transform="matrix(0.166991 -0.985958 0.984183 0.177152 181.27 213.791)" stroke="#C15E50" stroke-width="4"/>
<circle cx="179.32" cy="214.795" r="9.88852" transform="rotate(180 179.32 214.795)" fill="#C15E50"/>
<ellipse cx="190.035" cy="152.546" rx="10.7131" ry="11.0442" transform="rotate(180 190.035 152.546)" fill="#C15E50"/>
<circle cx="175.426" cy="87.2852" r="9.88852" transform="rotate(180 175.426 87.2852)" fill="#C15E50"/>
<ellipse cx="232.401" cy="195.217" rx="7.30438" ry="7.53012" transform="rotate(180 232.401 195.217)" fill="#C15E50"/>
<ellipse cx="200.261" cy="243.41" rx="6.33046" ry="6.5261" transform="rotate(180 200.261 243.41)" fill="#C15E50"/>
<ellipse cx="254.8" cy="141" rx="11.2" ry="11.5462" transform="rotate(180 254.8 141)" fill="#C15E50"/>
<circle cx="200.747" cy="38.0884" r="5.93311" transform="rotate(180 200.747 38.0884)" fill="#C15E50"/>
<circle cx="229.965" cy="87.2852" r="6.92197" transform="rotate(180 229.965 87.2852)" fill="#C15E50"/>
</svg>
