<svg width="512" height="512" viewBox="0 0 512 512" fill="none" xmlns="http://www.w3.org/2000/svg">
<mask id="path-1-outside-1_175_57" maskUnits="userSpaceOnUse" x="72.0659" y="74.975" width="365" height="362" fill="black">
<rect fill="white" x="72.0659" y="74.975" width="365" height="362"/>
<path d="M252.591 79.975C155.651 79.975 77.0659 158.56 77.0659 255.5C77.0659 352.44 155.651 431.025 252.591 431.025C299.163 431.025 341.499 412.887 372.92 383.289C379.358 377.225 378.475 367 371.609 361.425C365.175 356.201 355.83 357.012 349.693 362.581C324.033 385.863 289.969 400.05 252.591 400.05C172.758 400.05 108.041 335.333 108.041 255.5C108.041 175.667 172.758 110.95 252.591 110.95C311.067 110.95 361.433 145.673 384.196 195.625L410.344 178.449C381.808 120.134 321.889 79.975 252.591 79.975Z"/>
<path d="M418.897 110.052C410.443 108.748 402.533 114.544 401.229 122.997L392.579 179.066L336.391 170.398C327.938 169.094 320.028 174.89 318.724 183.343C317.42 191.797 323.215 199.707 331.669 201.011L403.163 212.04C411.616 213.344 419.526 207.548 420.83 199.095L431.842 127.72C433.146 119.266 427.35 111.356 418.897 110.052Z"/>
<path d="M241.012 172.9C249.565 172.9 256.499 179.834 256.499 188.387V255.188L313.684 277.182C321.667 280.253 325.65 289.214 322.579 297.197C319.509 305.181 310.548 309.163 302.565 306.093L235.452 280.28C229.471 277.98 225.524 272.233 225.524 265.825V188.387C225.524 179.834 232.458 172.9 241.012 172.9Z"/>
</mask>
<path d="M252.591 79.975C155.651 79.975 77.0659 158.56 77.0659 255.5C77.0659 352.44 155.651 431.025 252.591 431.025C299.163 431.025 341.499 412.887 372.92 383.289C379.358 377.225 378.475 367 371.609 361.425C365.175 356.201 355.83 357.012 349.693 362.581C324.033 385.863 289.969 400.05 252.591 400.05C172.758 400.05 108.041 335.333 108.041 255.5C108.041 175.667 172.758 110.95 252.591 110.95C311.067 110.95 361.433 145.673 384.196 195.625L410.344 178.449C381.808 120.134 321.889 79.975 252.591 79.975Z" fill="black"/>
<path d="M418.897 110.052C410.443 108.748 402.533 114.544 401.229 122.997L392.579 179.066L336.391 170.398C327.938 169.094 320.028 174.89 318.724 183.343C317.42 191.797 323.215 199.707 331.669 201.011L403.163 212.04C411.616 213.344 419.526 207.548 420.83 199.095L431.842 127.72C433.146 119.266 427.35 111.356 418.897 110.052Z" fill="black"/>
<path d="M241.012 172.9C249.565 172.9 256.499 179.834 256.499 188.387V255.188L313.684 277.182C321.667 280.253 325.65 289.214 322.579 297.197C319.509 305.181 310.548 309.163 302.565 306.093L235.452 280.28C229.471 277.98 225.524 272.233 225.524 265.825V188.387C225.524 179.834 232.458 172.9 241.012 172.9Z" fill="black"/>
<path d="M410.344 178.449L413.089 182.628L416.772 180.209L414.835 176.251L410.344 178.449ZM384.196 195.625L379.646 197.699L382.065 203.007L386.941 199.804L384.196 195.625ZM349.693 362.581L346.333 358.878L346.333 358.878L349.693 362.581ZM371.609 361.425L374.761 357.544L374.761 357.544L371.609 361.425ZM372.92 383.289L369.492 379.65L372.92 383.289ZM401.229 122.997L406.17 123.759L406.17 123.759L401.229 122.997ZM392.579 179.066L391.816 184.007C394.546 184.428 397.099 182.557 397.52 179.828L392.579 179.066ZM336.391 170.398L335.629 175.34L335.629 175.34L336.391 170.398ZM318.724 183.343L313.782 182.581L313.782 182.581L318.724 183.343ZM331.669 201.011L332.431 196.069L332.431 196.069L331.669 201.011ZM403.163 212.04L403.925 207.098L403.925 207.098L403.163 212.04ZM420.83 199.095L415.889 198.332L415.889 198.332L420.83 199.095ZM431.842 127.72L426.9 126.958L426.9 126.958L431.842 127.72ZM256.499 255.188H251.499V258.622L254.704 259.855L256.499 255.188ZM313.684 277.182L315.479 272.516L315.479 272.516L313.684 277.182ZM302.565 306.093L304.359 301.426L304.359 301.426L302.565 306.093ZM235.452 280.28L237.247 275.613L237.247 275.613L235.452 280.28ZM252.591 79.975V74.975C152.89 74.975 72.0659 155.799 72.0659 255.5H77.0659H82.0659C82.0659 161.322 158.413 84.975 252.591 84.975V79.975ZM77.0659 255.5H72.0659C72.0659 355.201 152.89 436.025 252.591 436.025V431.025V426.025C158.413 426.025 82.0659 349.678 82.0659 255.5H77.0659ZM252.591 400.05V395.05C175.52 395.05 113.041 332.571 113.041 255.5H108.041H103.041C103.041 338.094 169.997 405.05 252.591 405.05V400.05ZM108.041 255.5H113.041C113.041 178.429 175.52 115.95 252.591 115.95V110.95V105.95C169.997 105.95 103.041 172.906 103.041 255.5H108.041ZM252.591 431.025V436.025C300.488 436.025 344.037 417.365 376.348 386.929L372.92 383.289L369.492 379.65C338.962 408.408 297.839 426.025 252.591 426.025V431.025ZM349.693 362.581L346.333 358.878C321.557 381.358 288.679 395.05 252.591 395.05V400.05V405.05C291.259 405.05 326.509 390.368 353.053 366.283L349.693 362.581ZM410.344 178.449L414.835 176.251C385.492 116.287 323.871 74.975 252.591 74.975V79.975V84.975C319.908 84.975 378.124 123.981 405.853 180.647L410.344 178.449ZM252.591 110.95V115.95C309.037 115.95 357.666 149.463 379.646 197.699L384.196 195.625L388.746 193.552C365.201 141.883 313.098 105.95 252.591 105.95V110.95ZM410.344 178.449L407.599 174.27L381.451 191.446L384.196 195.625L386.941 199.804L413.089 182.628L410.344 178.449ZM349.693 362.581L353.053 366.283C357.596 362.161 364.177 361.831 368.457 365.307L371.609 361.425L374.761 357.544C366.174 350.571 354.064 351.863 346.333 358.878L349.693 362.581ZM372.92 383.289L376.348 386.929C385.217 378.575 383.724 364.822 374.761 357.544L371.609 361.425L368.457 365.307C373.225 369.178 373.498 375.876 369.492 379.65L372.92 383.289ZM401.229 122.997L406.17 123.759C407.053 118.035 412.41 114.11 418.134 114.994L418.897 110.052L419.659 105.111C408.476 103.385 398.012 111.052 396.287 122.235L401.229 122.997ZM392.579 179.066L397.52 179.828L406.17 123.759L401.229 122.997L396.287 122.235L387.637 178.303L392.579 179.066ZM336.391 170.398L335.629 175.34L391.816 184.007L392.579 179.066L393.341 174.124L337.154 165.456L336.391 170.398ZM318.724 183.343L323.665 184.105C324.548 178.381 329.905 174.456 335.629 175.34L336.391 170.398L337.154 165.456C325.971 163.731 315.507 171.398 313.782 182.581L318.724 183.343ZM331.669 201.011L332.431 196.069C326.707 195.186 322.782 189.83 323.665 184.105L318.724 183.343L313.782 182.581C312.057 193.764 319.724 204.227 330.907 205.952L331.669 201.011ZM403.163 212.04L403.925 207.098L332.431 196.069L331.669 201.011L330.907 205.952L402.4 216.981L403.163 212.04ZM420.83 199.095L415.889 198.332C415.006 204.057 409.649 207.981 403.925 207.098L403.163 212.04L402.4 216.981C413.583 218.706 424.047 211.04 425.772 199.857L420.83 199.095ZM431.842 127.72L426.9 126.958L415.889 198.332L420.83 199.095L425.772 199.857L436.783 128.482L431.842 127.72ZM418.897 110.052L418.134 114.994C423.859 115.877 427.783 121.233 426.9 126.958L431.842 127.72L436.783 128.482C438.508 117.3 430.842 106.836 419.659 105.111L418.897 110.052ZM241.012 172.9V177.9C246.804 177.9 251.499 182.595 251.499 188.387H256.499H261.499C261.499 177.073 252.327 167.9 241.012 167.9V172.9ZM256.499 188.387H251.499V255.188H256.499H261.499V188.387H256.499ZM256.499 255.188L254.704 259.855L311.889 281.849L313.684 277.182L315.479 272.516L258.294 250.521L256.499 255.188ZM313.684 277.182L311.889 281.849C317.295 283.928 319.992 289.996 317.913 295.402L322.579 297.197L327.246 298.992C331.308 288.431 326.04 276.577 315.479 272.516L313.684 277.182ZM322.579 297.197L317.913 295.402C315.834 300.808 309.766 303.505 304.359 301.426L302.565 306.093L300.77 310.759C311.33 314.821 323.184 309.553 327.246 298.992L322.579 297.197ZM302.565 306.093L304.359 301.426L237.247 275.613L235.452 280.28L233.657 284.947L300.77 310.759L302.565 306.093ZM235.452 280.28L237.247 275.613C233.197 274.056 230.524 270.164 230.524 265.825H225.524H220.524C220.524 274.302 225.745 281.904 233.657 284.947L235.452 280.28ZM225.524 265.825H230.524V188.387H225.524H220.524V265.825H225.524ZM225.524 188.387H230.524C230.524 182.595 235.22 177.9 241.012 177.9V172.9V167.9C229.697 167.9 220.524 177.073 220.524 188.387H225.524Z" fill="black" mask="url(#path-1-outside-1_175_57)"/>
</svg>
